<svg width="530" height="160" viewBox="0 0 530 160" fill="none" xmlns="http://www.w3.org/2000/svg">
<path d="M32.8174 96.4141C38.9404 96.1276 43.1657 93.8896 45.4932 89.7002C46.7106 87.5518 47.3193 85.0632 47.3193 82.2344C47.3193 77.7585 45.6722 74.3568 42.3779 72.0293C40.4801 70.6686 37.2933 69.3796 32.8174 68.1621V96.4141ZM14.6094 44.583C14.6094 48.1279 15.7731 50.903 18.1006 52.9082C20.4639 54.9134 23.6328 56.3099 27.6074 57.0977V31.8535C22.9167 32.0326 19.5687 33.4648 17.5635 36.1504C15.5941 38.8359 14.6094 41.6468 14.6094 44.583ZM4.94141 45.2275C4.94141 39.7848 6.92871 34.8792 10.9033 30.5107C14.9137 26.1423 20.5176 23.9222 27.7148 23.8506V16.707H32.8174V23.7432C39.943 24.2445 45.4036 26.3571 49.1992 30.0811C53.0306 33.7692 55.0358 38.6569 55.2148 44.7441H45.8154C45.5648 42.0228 44.8307 39.6774 43.6133 37.708C41.3574 34.0915 37.7588 32.1937 32.8174 32.0146V58.1182C41.1247 60.4456 46.7643 62.6299 49.7363 64.6709C54.5703 68.0368 56.9873 73.014 56.9873 79.6025C56.9873 89.1273 53.89 95.8949 47.6953 99.9053C44.2578 102.125 39.2985 103.593 32.8174 104.31V114.729H27.7148V104.31C17.2949 103.629 10.223 99.9411 6.49902 93.2451C4.45801 89.6286 3.4375 84.7409 3.4375 78.582H12.9443C13.2308 83.4876 14.0007 87.0684 15.2539 89.3242C17.474 93.3704 21.5918 95.6442 27.6074 96.1455V66.873C19.873 65.4049 14.1618 62.9521 10.4736 59.5146C6.78548 56.0771 4.94141 51.3148 4.94141 45.2275ZM90.9863 25.0859C100.941 25.0859 108.138 29.1859 112.578 37.3857C116.016 43.7236 117.734 52.4069 117.734 63.4355C117.734 73.8913 116.177 82.5387 113.062 89.3779C108.55 99.1891 101.174 104.095 90.9326 104.095C81.6943 104.095 74.8193 100.084 70.3076 92.0635C66.5479 85.3675 64.668 76.3799 64.668 65.1006C64.668 56.3636 65.7959 48.862 68.0518 42.5957C72.277 30.9225 79.9219 25.0859 90.9863 25.0859ZM90.8789 95.2861C95.8919 95.2861 99.8844 93.0661 102.856 88.626C105.828 84.1859 107.314 75.9144 107.314 63.8115C107.314 55.0745 106.24 47.8952 104.092 42.2734C101.943 36.6159 97.7718 33.7871 91.5771 33.7871C85.8838 33.7871 81.7122 36.4727 79.0625 41.8438C76.4486 47.179 75.1416 55.0566 75.1416 65.4766C75.1416 73.3184 75.9831 79.6204 77.666 84.3828C80.2441 91.6517 84.6484 95.2861 90.8789 95.2861ZM131.86 90.291H143.086V102H131.86V90.291ZM182.832 25.0859C192.786 25.0859 199.984 29.1859 204.424 37.3857C207.861 43.7236 209.58 52.4069 209.58 63.4355C209.58 73.8913 208.022 82.5387 204.907 89.3779C200.396 99.1891 193.019 104.095 182.778 104.095C173.54 104.095 166.665 100.084 162.153 92.0635C158.394 85.3675 156.514 76.3799 156.514 65.1006C156.514 56.3636 157.642 48.862 159.897 42.5957C164.123 30.9225 171.768 25.0859 182.832 25.0859ZM182.725 95.2861C187.738 95.2861 191.73 93.0661 194.702 88.626C197.674 84.1859 199.16 75.9144 199.16 63.8115C199.16 55.0745 198.086 47.8952 195.938 42.2734C193.789 36.6159 189.618 33.7871 183.423 33.7871C177.729 33.7871 173.558 36.4727 170.908 41.8438C168.294 47.179 166.987 55.0566 166.987 65.4766C166.987 73.3184 167.829 79.6204 169.512 84.3828C172.09 91.6517 176.494 95.2861 182.725 95.2861ZM244.062 25.0859C254.017 25.0859 261.214 29.1859 265.654 37.3857C269.092 43.7236 270.811 52.4069 270.811 63.4355C270.811 73.8913 269.253 82.5387 266.138 89.3779C261.626 99.1891 254.25 104.095 244.009 104.095C234.771 104.095 227.896 100.084 223.384 92.0635C219.624 85.3675 217.744 76.3799 217.744 65.1006C217.744 56.3636 218.872 48.862 221.128 42.5957C225.353 30.9225 232.998 25.0859 244.062 25.0859ZM243.955 95.2861C248.968 95.2861 252.961 93.0661 255.933 88.626C258.905 84.1859 260.391 75.9144 260.391 63.8115C260.391 55.0745 259.316 47.8952 257.168 42.2734C255.02 36.6159 250.848 33.7871 244.653 33.7871C238.96 33.7871 234.788 36.4727 232.139 41.8438C229.525 47.179 228.218 55.0566 228.218 65.4766C228.218 73.3184 229.059 79.6204 230.742 84.3828C233.32 91.6517 237.725 95.2861 243.955 95.2861ZM305.293 25.0859C315.247 25.0859 322.445 29.1859 326.885 37.3857C330.322 43.7236 332.041 52.4069 332.041 63.4355C332.041 73.8913 330.483 82.5387 327.368 89.3779C322.856 99.1891 315.48 104.095 305.239 104.095C296.001 104.095 289.126 100.084 284.614 92.0635C280.854 85.3675 278.975 76.3799 278.975 65.1006C278.975 56.3636 280.103 48.862 282.358 42.5957C286.584 30.9225 294.229 25.0859 305.293 25.0859ZM305.186 95.2861C310.199 95.2861 314.191 93.0661 317.163 88.626C320.135 84.1859 321.621 75.9144 321.621 63.8115C321.621 55.0745 320.547 47.8952 318.398 42.2734C316.25 36.6159 312.078 33.7871 305.884 33.7871C300.19 33.7871 296.019 36.4727 293.369 41.8438C290.755 47.179 289.448 55.0566 289.448 65.4766C289.448 73.3184 290.29 79.6204 291.973 84.3828C294.551 91.6517 298.955 95.2861 305.186 95.2861ZM340.205 102C340.563 95.3757 341.924 89.6107 344.287 84.7051C346.686 79.7995 351.341 75.3415 358.252 71.3311L368.564 65.3691C373.184 62.6836 376.424 60.3919 378.286 58.4941C381.222 55.5221 382.69 52.1204 382.69 48.2891C382.69 43.8132 381.348 40.2682 378.662 37.6543C375.977 35.0046 372.396 33.6797 367.92 33.6797C361.296 33.6797 356.712 36.1862 354.17 41.1992C352.809 43.8848 352.057 47.6087 351.914 52.3711H342.085C342.192 45.6751 343.428 40.2145 345.791 35.9893C349.98 28.5413 357.375 24.8174 367.974 24.8174C376.782 24.8174 383.21 27.1986 387.256 31.9609C391.338 36.7233 393.379 42.0228 393.379 47.8594C393.379 54.0182 391.213 59.2819 386.88 63.6504C384.373 66.1927 379.88 69.2721 373.398 72.8887L366.04 76.9707C362.531 78.9043 359.774 80.7484 357.769 82.5029C354.188 85.6182 351.932 89.0736 351.001 92.8691H393.003V102H340.205ZM411.587 82.3955C412.231 87.9098 414.792 91.7233 419.268 93.8359C421.559 94.9102 424.209 95.4473 427.217 95.4473C432.946 95.4473 437.189 93.6211 439.946 89.9688C442.703 86.3164 444.082 82.2702 444.082 77.8301C444.082 72.459 442.435 68.3053 439.141 65.3691C435.882 62.4329 431.961 60.9648 427.378 60.9648C424.048 60.9648 421.183 61.6094 418.784 62.8984C416.421 64.1875 414.398 65.9779 412.715 68.2695L404.336 67.7861L410.19 26.375H450.151V35.7207H417.441L414.165 57.0977C415.955 55.737 417.656 54.7165 419.268 54.0361C422.132 52.8545 425.444 52.2637 429.204 52.2637C436.258 52.2637 442.238 54.5374 447.144 59.085C452.049 63.6325 454.502 69.3975 454.502 76.3799C454.502 83.6488 452.246 90.0583 447.734 95.6084C443.258 101.159 436.097 103.934 426.25 103.934C419.984 103.934 414.434 102.179 409.6 98.6699C404.801 95.125 402.116 89.7002 401.543 82.3955H411.587Z" fill="url(#paint0_linear_1_65)"/>
<path d="M5.53125 140.633L1.76562 151H0.226562L4.5625 139.625H5.55469L5.53125 140.633ZM8.6875 151L4.91406 140.633L4.89062 139.625H5.88281L10.2344 151H8.6875ZM8.49219 146.789V148.023H2.10156V146.789H8.49219ZM14.7422 149.273L18.0938 139.625H19.7266L15.5156 151H14.3516L14.7422 149.273ZM11.6094 139.625L14.9297 149.273L15.3438 151H14.1797L9.97656 139.625H11.6094ZM28.4844 149.773V151H22.4609V149.773H28.4844ZM22.7656 139.625V151H21.2578V139.625H22.7656ZM27.6875 144.516V145.742H22.4609V144.516H27.6875ZM28.4062 139.625V140.859H22.4609V139.625H28.4062ZM30.3516 139.625H34.1172C34.9714 139.625 35.6927 139.755 36.2812 140.016C36.875 140.276 37.3255 140.661 37.6328 141.172C37.9453 141.677 38.1016 142.299 38.1016 143.039C38.1016 143.56 37.9948 144.036 37.7812 144.469C37.5729 144.896 37.2708 145.26 36.875 145.562C36.4844 145.859 36.0156 146.081 35.4688 146.227L35.0469 146.391H31.5078L31.4922 145.164H34.1641C34.7057 145.164 35.1562 145.07 35.5156 144.883C35.875 144.69 36.1458 144.432 36.3281 144.109C36.5104 143.786 36.6016 143.43 36.6016 143.039C36.6016 142.602 36.5156 142.219 36.3438 141.891C36.1719 141.562 35.901 141.31 35.5312 141.133C35.1667 140.951 34.6953 140.859 34.1172 140.859H31.8594V151H30.3516V139.625ZM37 151L34.2344 145.844L35.8047 145.836L38.6094 150.906V151H37ZM44.4219 140.633L40.6562 151H39.1172L43.4531 139.625H44.4453L44.4219 140.633ZM47.5781 151L43.8047 140.633L43.7812 139.625H44.7734L49.125 151H47.5781ZM47.3828 146.789V148.023H40.9922V146.789H47.3828ZM58.9609 145.336V149.5C58.8203 149.708 58.5964 149.943 58.2891 150.203C57.9818 150.458 57.5573 150.682 57.0156 150.875C56.4792 151.062 55.7865 151.156 54.9375 151.156C54.2448 151.156 53.6068 151.036 53.0234 150.797C52.4453 150.552 51.9427 150.198 51.5156 149.734C51.0938 149.266 50.7656 148.698 50.5312 148.031C50.3021 147.359 50.1875 146.599 50.1875 145.75V144.867C50.1875 144.018 50.2865 143.26 50.4844 142.594C50.6875 141.927 50.9844 141.362 51.375 140.898C51.7656 140.43 52.2448 140.076 52.8125 139.836C53.3802 139.591 54.0312 139.469 54.7656 139.469C55.6354 139.469 56.362 139.62 56.9453 139.922C57.5339 140.219 57.9922 140.63 58.3203 141.156C58.6536 141.682 58.8672 142.281 58.9609 142.953H57.4531C57.3854 142.542 57.25 142.167 57.0469 141.828C56.849 141.49 56.5651 141.219 56.1953 141.016C55.8255 140.807 55.349 140.703 54.7656 140.703C54.2396 140.703 53.7839 140.799 53.3984 140.992C53.013 141.185 52.6953 141.461 52.4453 141.82C52.1953 142.18 52.0078 142.615 51.8828 143.125C51.763 143.635 51.7031 144.211 51.7031 144.852V145.75C51.7031 146.406 51.7786 146.992 51.9297 147.508C52.0859 148.023 52.3073 148.464 52.5938 148.828C52.8802 149.188 53.2214 149.461 53.6172 149.648C54.0182 149.836 54.4609 149.93 54.9453 149.93C55.4818 149.93 55.9167 149.885 56.25 149.797C56.5833 149.703 56.8438 149.594 57.0312 149.469C57.2188 149.339 57.362 149.216 57.4609 149.102V146.555H54.8281V145.336H58.9609ZM68.6875 149.773V151H62.6641V149.773H68.6875ZM62.9688 139.625V151H61.4609V139.625H62.9688ZM67.8906 144.516V145.742H62.6641V144.516H67.8906ZM68.6094 139.625V140.859H62.6641V139.625H68.6094ZM81.3906 147.383H82.8906C82.8125 148.102 82.6068 148.745 82.2734 149.312C81.9401 149.88 81.4688 150.331 80.8594 150.664C80.25 150.992 79.4896 151.156 78.5781 151.156C77.9115 151.156 77.3047 151.031 76.7578 150.781C76.2161 150.531 75.75 150.177 75.3594 149.719C74.9688 149.255 74.6667 148.701 74.4531 148.055C74.2448 147.404 74.1406 146.68 74.1406 145.883V144.75C74.1406 143.953 74.2448 143.232 74.4531 142.586C74.6667 141.935 74.9714 141.378 75.3672 140.914C75.7682 140.451 76.25 140.094 76.8125 139.844C77.375 139.594 78.0078 139.469 78.7109 139.469C79.5703 139.469 80.2969 139.63 80.8906 139.953C81.4844 140.276 81.9453 140.724 82.2734 141.297C82.6068 141.865 82.8125 142.523 82.8906 143.273H81.3906C81.3177 142.742 81.1823 142.286 80.9844 141.906C80.7865 141.521 80.5052 141.224 80.1406 141.016C79.776 140.807 79.2995 140.703 78.7109 140.703C78.2057 140.703 77.7604 140.799 77.375 140.992C76.9948 141.185 76.6745 141.458 76.4141 141.812C76.1589 142.167 75.9661 142.591 75.8359 143.086C75.7057 143.581 75.6406 144.13 75.6406 144.734V145.883C75.6406 146.44 75.6979 146.964 75.8125 147.453C75.9323 147.943 76.112 148.372 76.3516 148.742C76.5911 149.112 76.8958 149.404 77.2656 149.617C77.6354 149.826 78.0729 149.93 78.5781 149.93C79.2188 149.93 79.7292 149.828 80.1094 149.625C80.4896 149.422 80.776 149.13 80.9688 148.75C81.1667 148.37 81.3073 147.914 81.3906 147.383ZM93.7031 144.953V145.672C93.7031 146.526 93.5964 147.292 93.3828 147.969C93.1693 148.646 92.862 149.221 92.4609 149.695C92.0599 150.169 91.5781 150.531 91.0156 150.781C90.4583 151.031 89.8333 151.156 89.1406 151.156C88.4688 151.156 87.8516 151.031 87.2891 150.781C86.7318 150.531 86.2474 150.169 85.8359 149.695C85.4297 149.221 85.1146 148.646 84.8906 147.969C84.6667 147.292 84.5547 146.526 84.5547 145.672V144.953C84.5547 144.099 84.6641 143.336 84.8828 142.664C85.1068 141.987 85.4219 141.411 85.8281 140.938C86.2344 140.458 86.7161 140.094 87.2734 139.844C87.8359 139.594 88.4531 139.469 89.125 139.469C89.8177 139.469 90.4427 139.594 91 139.844C91.5625 140.094 92.0443 140.458 92.4453 140.938C92.8516 141.411 93.1615 141.987 93.375 142.664C93.5938 143.336 93.7031 144.099 93.7031 144.953ZM92.2109 145.672V144.938C92.2109 144.26 92.1406 143.661 92 143.141C91.8646 142.62 91.6641 142.182 91.3984 141.828C91.1328 141.474 90.8073 141.206 90.4219 141.023C90.0417 140.841 89.6094 140.75 89.125 140.75C88.6562 140.75 88.2318 140.841 87.8516 141.023C87.4766 141.206 87.1536 141.474 86.8828 141.828C86.6172 142.182 86.4115 142.62 86.2656 143.141C86.1198 143.661 86.0469 144.26 86.0469 144.938V145.672C86.0469 146.354 86.1198 146.958 86.2656 147.484C86.4115 148.005 86.6198 148.445 86.8906 148.805C87.1667 149.159 87.4922 149.427 87.8672 149.609C88.2474 149.792 88.6719 149.883 89.1406 149.883C89.6302 149.883 90.0651 149.792 90.4453 149.609C90.8255 149.427 91.1458 149.159 91.4062 148.805C91.6719 148.445 91.8724 148.005 92.0078 147.484C92.1432 146.958 92.2109 146.354 92.2109 145.672ZM102.023 148.125C102.023 147.859 101.982 147.625 101.898 147.422C101.82 147.214 101.68 147.026 101.477 146.859C101.279 146.693 101.003 146.534 100.648 146.383C100.299 146.232 99.8568 146.078 99.3203 145.922C98.7578 145.755 98.25 145.57 97.7969 145.367C97.3438 145.159 96.9557 144.922 96.6328 144.656C96.3099 144.391 96.0625 144.086 95.8906 143.742C95.7188 143.398 95.6328 143.005 95.6328 142.562C95.6328 142.12 95.724 141.711 95.9062 141.336C96.0885 140.961 96.349 140.635 96.6875 140.359C97.0312 140.078 97.4401 139.859 97.9141 139.703C98.388 139.547 98.9167 139.469 99.5 139.469C100.354 139.469 101.078 139.633 101.672 139.961C102.271 140.284 102.727 140.708 103.039 141.234C103.352 141.755 103.508 142.312 103.508 142.906H102.008C102.008 142.479 101.917 142.102 101.734 141.773C101.552 141.44 101.276 141.18 100.906 140.992C100.536 140.799 100.068 140.703 99.5 140.703C98.9635 140.703 98.5208 140.784 98.1719 140.945C97.8229 141.107 97.5625 141.326 97.3906 141.602C97.224 141.878 97.1406 142.193 97.1406 142.547C97.1406 142.786 97.1901 143.005 97.2891 143.203C97.3932 143.396 97.5521 143.576 97.7656 143.742C97.9844 143.909 98.2604 144.062 98.5938 144.203C98.9323 144.344 99.3359 144.479 99.8047 144.609C100.451 144.792 101.008 144.995 101.477 145.219C101.945 145.443 102.331 145.695 102.633 145.977C102.94 146.253 103.167 146.568 103.312 146.922C103.464 147.271 103.539 147.667 103.539 148.109C103.539 148.573 103.445 148.992 103.258 149.367C103.07 149.742 102.802 150.062 102.453 150.328C102.104 150.594 101.685 150.799 101.195 150.945C100.711 151.086 100.169 151.156 99.5703 151.156C99.0443 151.156 98.526 151.083 98.0156 150.938C97.5104 150.792 97.0495 150.573 96.6328 150.281C96.2214 149.99 95.8906 149.63 95.6406 149.203C95.3958 148.771 95.2734 148.271 95.2734 147.703H96.7734C96.7734 148.094 96.849 148.43 97 148.711C97.151 148.987 97.3568 149.216 97.6172 149.398C97.8828 149.581 98.1823 149.716 98.5156 149.805C98.8542 149.888 99.2057 149.93 99.5703 149.93C100.096 149.93 100.542 149.857 100.906 149.711C101.271 149.565 101.547 149.357 101.734 149.086C101.927 148.815 102.023 148.495 102.023 148.125ZM109.664 139.625V151H108.18V139.625H109.664ZM113.32 139.625V140.859H104.531V139.625H113.32ZM122.859 146.539H119.82V145.312H122.859C123.448 145.312 123.924 145.219 124.289 145.031C124.654 144.844 124.919 144.583 125.086 144.25C125.258 143.917 125.344 143.536 125.344 143.109C125.344 142.719 125.258 142.352 125.086 142.008C124.919 141.664 124.654 141.388 124.289 141.18C123.924 140.966 123.448 140.859 122.859 140.859H120.172V151H118.664V139.625H122.859C123.719 139.625 124.445 139.773 125.039 140.07C125.633 140.367 126.083 140.779 126.391 141.305C126.698 141.826 126.852 142.422 126.852 143.094C126.852 143.823 126.698 144.445 126.391 144.961C126.083 145.477 125.633 145.87 125.039 146.141C124.445 146.406 123.719 146.539 122.859 146.539ZM135.984 149.773V151H129.961V149.773H135.984ZM130.266 139.625V151H128.758V139.625H130.266ZM135.188 144.516V145.742H129.961V144.516H135.188ZM135.906 139.625V140.859H129.961V139.625H135.906ZM137.852 139.625H141.617C142.471 139.625 143.193 139.755 143.781 140.016C144.375 140.276 144.826 140.661 145.133 141.172C145.445 141.677 145.602 142.299 145.602 143.039C145.602 143.56 145.495 144.036 145.281 144.469C145.073 144.896 144.771 145.26 144.375 145.562C143.984 145.859 143.516 146.081 142.969 146.227L142.547 146.391H139.008L138.992 145.164H141.664C142.206 145.164 142.656 145.07 143.016 144.883C143.375 144.69 143.646 144.432 143.828 144.109C144.01 143.786 144.102 143.43 144.102 143.039C144.102 142.602 144.016 142.219 143.844 141.891C143.672 141.562 143.401 141.31 143.031 141.133C142.667 140.951 142.195 140.859 141.617 140.859H139.359V151H137.852V139.625ZM144.5 151L141.734 145.844L143.305 145.836L146.109 150.906V151H144.5ZM155.57 139.625V151H154.086V139.625H155.57ZM159.227 139.625V140.859H150.438V139.625H159.227ZM160.914 139.625H164.68C165.534 139.625 166.255 139.755 166.844 140.016C167.438 140.276 167.888 140.661 168.195 141.172C168.508 141.677 168.664 142.299 168.664 143.039C168.664 143.56 168.557 144.036 168.344 144.469C168.135 144.896 167.833 145.26 167.438 145.562C167.047 145.859 166.578 146.081 166.031 146.227L165.609 146.391H162.07L162.055 145.164H164.727C165.268 145.164 165.719 145.07 166.078 144.883C166.438 144.69 166.708 144.432 166.891 144.109C167.073 143.786 167.164 143.43 167.164 143.039C167.164 142.602 167.078 142.219 166.906 141.891C166.734 141.562 166.464 141.31 166.094 141.133C165.729 140.951 165.258 140.859 164.68 140.859H162.422V151H160.914V139.625ZM167.562 151L164.797 145.844L166.367 145.836L169.172 150.906V151H167.562ZM174.984 140.633L171.219 151H169.68L174.016 139.625H175.008L174.984 140.633ZM178.141 151L174.367 140.633L174.344 139.625H175.336L179.688 151H178.141ZM177.945 146.789V148.023H171.555V146.789H177.945ZM189.961 139.625V151H188.445L182.719 142.227V151H181.211V139.625H182.719L188.469 148.422V139.625H189.961ZM198.695 148.125C198.695 147.859 198.654 147.625 198.57 147.422C198.492 147.214 198.352 147.026 198.148 146.859C197.951 146.693 197.674 146.534 197.32 146.383C196.971 146.232 196.529 146.078 195.992 145.922C195.43 145.755 194.922 145.57 194.469 145.367C194.016 145.159 193.628 144.922 193.305 144.656C192.982 144.391 192.734 144.086 192.562 143.742C192.391 143.398 192.305 143.005 192.305 142.562C192.305 142.12 192.396 141.711 192.578 141.336C192.76 140.961 193.021 140.635 193.359 140.359C193.703 140.078 194.112 139.859 194.586 139.703C195.06 139.547 195.589 139.469 196.172 139.469C197.026 139.469 197.75 139.633 198.344 139.961C198.943 140.284 199.398 140.708 199.711 141.234C200.023 141.755 200.18 142.312 200.18 142.906H198.68C198.68 142.479 198.589 142.102 198.406 141.773C198.224 141.44 197.948 141.18 197.578 140.992C197.208 140.799 196.74 140.703 196.172 140.703C195.635 140.703 195.193 140.784 194.844 140.945C194.495 141.107 194.234 141.326 194.062 141.602C193.896 141.878 193.812 142.193 193.812 142.547C193.812 142.786 193.862 143.005 193.961 143.203C194.065 143.396 194.224 143.576 194.438 143.742C194.656 143.909 194.932 144.062 195.266 144.203C195.604 144.344 196.008 144.479 196.477 144.609C197.122 144.792 197.68 144.995 198.148 145.219C198.617 145.443 199.003 145.695 199.305 145.977C199.612 146.253 199.839 146.568 199.984 146.922C200.135 147.271 200.211 147.667 200.211 148.109C200.211 148.573 200.117 148.992 199.93 149.367C199.742 149.742 199.474 150.062 199.125 150.328C198.776 150.594 198.357 150.799 197.867 150.945C197.383 151.086 196.841 151.156 196.242 151.156C195.716 151.156 195.198 151.083 194.688 150.938C194.182 150.792 193.721 150.573 193.305 150.281C192.893 149.99 192.562 149.63 192.312 149.203C192.068 148.771 191.945 148.271 191.945 147.703H193.445C193.445 148.094 193.521 148.43 193.672 148.711C193.823 148.987 194.029 149.216 194.289 149.398C194.555 149.581 194.854 149.716 195.188 149.805C195.526 149.888 195.878 149.93 196.242 149.93C196.768 149.93 197.214 149.857 197.578 149.711C197.943 149.565 198.219 149.357 198.406 149.086C198.599 148.815 198.695 148.495 198.695 148.125ZM206.344 140.633L202.578 151H201.039L205.375 139.625H206.367L206.344 140.633ZM209.5 151L205.727 140.633L205.703 139.625H206.695L211.047 151H209.5ZM209.305 146.789V148.023H202.914V146.789H209.305ZM219.344 147.383H220.844C220.766 148.102 220.56 148.745 220.227 149.312C219.893 149.88 219.422 150.331 218.812 150.664C218.203 150.992 217.443 151.156 216.531 151.156C215.865 151.156 215.258 151.031 214.711 150.781C214.169 150.531 213.703 150.177 213.312 149.719C212.922 149.255 212.62 148.701 212.406 148.055C212.198 147.404 212.094 146.68 212.094 145.883V144.75C212.094 143.953 212.198 143.232 212.406 142.586C212.62 141.935 212.924 141.378 213.32 140.914C213.721 140.451 214.203 140.094 214.766 139.844C215.328 139.594 215.961 139.469 216.664 139.469C217.523 139.469 218.25 139.63 218.844 139.953C219.438 140.276 219.898 140.724 220.227 141.297C220.56 141.865 220.766 142.523 220.844 143.273H219.344C219.271 142.742 219.135 142.286 218.938 141.906C218.74 141.521 218.458 141.224 218.094 141.016C217.729 140.807 217.253 140.703 216.664 140.703C216.159 140.703 215.714 140.799 215.328 140.992C214.948 141.185 214.628 141.458 214.367 141.812C214.112 142.167 213.919 142.591 213.789 143.086C213.659 143.581 213.594 144.13 213.594 144.734V145.883C213.594 146.44 213.651 146.964 213.766 147.453C213.885 147.943 214.065 148.372 214.305 148.742C214.544 149.112 214.849 149.404 215.219 149.617C215.589 149.826 216.026 149.93 216.531 149.93C217.172 149.93 217.682 149.828 218.062 149.625C218.443 149.422 218.729 149.13 218.922 148.75C219.12 148.37 219.26 147.914 219.344 147.383ZM226.867 139.625V151H225.383V139.625H226.867ZM230.523 139.625V140.859H221.734V139.625H230.523ZM233.828 139.625V151H232.32V139.625H233.828ZM245.328 144.953V145.672C245.328 146.526 245.221 147.292 245.008 147.969C244.794 148.646 244.487 149.221 244.086 149.695C243.685 150.169 243.203 150.531 242.641 150.781C242.083 151.031 241.458 151.156 240.766 151.156C240.094 151.156 239.477 151.031 238.914 150.781C238.357 150.531 237.872 150.169 237.461 149.695C237.055 149.221 236.74 148.646 236.516 147.969C236.292 147.292 236.18 146.526 236.18 145.672V144.953C236.18 144.099 236.289 143.336 236.508 142.664C236.732 141.987 237.047 141.411 237.453 140.938C237.859 140.458 238.341 140.094 238.898 139.844C239.461 139.594 240.078 139.469 240.75 139.469C241.443 139.469 242.068 139.594 242.625 139.844C243.188 140.094 243.669 140.458 244.07 140.938C244.477 141.411 244.786 141.987 245 142.664C245.219 143.336 245.328 144.099 245.328 144.953ZM243.836 145.672V144.938C243.836 144.26 243.766 143.661 243.625 143.141C243.49 142.62 243.289 142.182 243.023 141.828C242.758 141.474 242.432 141.206 242.047 141.023C241.667 140.841 241.234 140.75 240.75 140.75C240.281 140.75 239.857 140.841 239.477 141.023C239.102 141.206 238.779 141.474 238.508 141.828C238.242 142.182 238.036 142.62 237.891 143.141C237.745 143.661 237.672 144.26 237.672 144.938V145.672C237.672 146.354 237.745 146.958 237.891 147.484C238.036 148.005 238.245 148.445 238.516 148.805C238.792 149.159 239.117 149.427 239.492 149.609C239.872 149.792 240.297 149.883 240.766 149.883C241.255 149.883 241.69 149.792 242.07 149.609C242.451 149.427 242.771 149.159 243.031 148.805C243.297 148.445 243.497 148.005 243.633 147.484C243.768 146.958 243.836 146.354 243.836 145.672ZM256.336 139.625V151H254.82L249.094 142.227V151H247.586V139.625H249.094L254.844 148.422V139.625H256.336Z" fill="#C4C4C4"/>
<defs>
<linearGradient id="paint0_linear_1_65" x1="498" y1="-28.5" x2="-56" y2="142.5" gradientUnits="userSpaceOnUse">
<stop stop-color="#00FFBD"/>
<stop offset="1" stop-color="#025B8C"/>
</linearGradient>
</defs>
</svg>
