<svg width="530" height="160" viewBox="0 0 530 160" fill="none" xmlns="http://www.w3.org/2000/svg">
<path d="M9.66602 48.9932V42.1875C16.0771 41.5628 20.5485 40.5272 23.0801 39.0806C25.6117 37.6011 27.5021 34.1325 28.7515 28.6748H35.7544V99H26.2856V48.9932H9.66602ZM58.3906 48.9932V42.1875C64.8018 41.5628 69.2731 40.5272 71.8047 39.0806C74.3363 37.6011 76.2267 34.1325 77.4761 28.6748H84.479V99H75.0103V48.9932H58.3906ZM113.576 88.249H123.883V99H113.576V88.249ZM145.533 80.9995C146.125 86.0627 148.475 89.5641 152.585 91.5039C154.689 92.4902 157.122 92.9834 159.884 92.9834C165.144 92.9834 169.04 91.3066 171.572 87.9531C174.103 84.5996 175.369 80.8844 175.369 76.8076C175.369 71.876 173.857 68.0622 170.832 65.3662C167.84 62.6702 164.24 61.3223 160.032 61.3223C156.974 61.3223 154.344 61.9141 152.141 63.0977C149.971 64.2812 148.114 65.9251 146.568 68.0293L138.875 67.5854L144.25 29.5625H180.942V38.1436H150.908L147.9 57.7715C149.544 56.5221 151.105 55.5851 152.585 54.9604C155.215 53.8755 158.256 53.333 161.708 53.333C168.185 53.333 173.676 55.4207 178.18 59.5962C182.684 63.7716 184.937 69.0649 184.937 75.4761C184.937 82.1502 182.865 88.0353 178.723 93.1313C174.613 98.2274 168.037 100.775 158.996 100.775C153.243 100.775 148.146 99.1644 143.708 95.9424C139.302 92.6875 136.837 87.7065 136.311 80.9995H145.533ZM196.723 26.5542H210.778L231.59 87.8052L252.253 26.5542H266.161V99H256.84V56.2427C256.84 54.7632 256.873 52.3138 256.938 48.8945C257.004 45.4753 257.037 41.8094 257.037 37.897L236.374 99H226.658L205.847 37.897V40.1162C205.847 41.8916 205.88 44.604 205.945 48.2534C206.044 51.87 206.093 54.533 206.093 56.2427V99H196.723V26.5542ZM277.947 77.3994V69.1143H299.449V47.4644H307.882V69.1143H329.384V77.3994H307.882V99H299.449V77.3994H277.947Z" fill="url(#paint0_linear_1_55)"/>
<path d="M5.53125 140.633L1.76562 151H0.226562L4.5625 139.625H5.55469L5.53125 140.633ZM8.6875 151L4.91406 140.633L4.89062 139.625H5.88281L10.2344 151H8.6875ZM8.49219 146.789V148.023H2.10156V146.789H8.49219ZM18.5312 147.383H20.0312C19.9531 148.102 19.7474 148.745 19.4141 149.312C19.0807 149.88 18.6094 150.331 18 150.664C17.3906 150.992 16.6302 151.156 15.7188 151.156C15.0521 151.156 14.4453 151.031 13.8984 150.781C13.3568 150.531 12.8906 150.177 12.5 149.719C12.1094 149.255 11.8073 148.701 11.5938 148.055C11.3854 147.404 11.2812 146.68 11.2812 145.883V144.75C11.2812 143.953 11.3854 143.232 11.5938 142.586C11.8073 141.935 12.112 141.378 12.5078 140.914C12.9089 140.451 13.3906 140.094 13.9531 139.844C14.5156 139.594 15.1484 139.469 15.8516 139.469C16.7109 139.469 17.4375 139.63 18.0312 139.953C18.625 140.276 19.0859 140.724 19.4141 141.297C19.7474 141.865 19.9531 142.523 20.0312 143.273H18.5312C18.4583 142.742 18.3229 142.286 18.125 141.906C17.9271 141.521 17.6458 141.224 17.2812 141.016C16.9167 140.807 16.4401 140.703 15.8516 140.703C15.3464 140.703 14.901 140.799 14.5156 140.992C14.1354 141.185 13.8151 141.458 13.5547 141.812C13.2995 142.167 13.1068 142.591 12.9766 143.086C12.8464 143.581 12.7812 144.13 12.7812 144.734V145.883C12.7812 146.44 12.8385 146.964 12.9531 147.453C13.0729 147.943 13.2526 148.372 13.4922 148.742C13.7318 149.112 14.0365 149.404 14.4062 149.617C14.776 149.826 15.2135 149.93 15.7188 149.93C16.3594 149.93 16.8698 149.828 17.25 149.625C17.6302 149.422 17.9167 149.13 18.1094 148.75C18.3073 148.37 18.4479 147.914 18.5312 147.383ZM26.0547 139.625V151H24.5703V139.625H26.0547ZM29.7109 139.625V140.859H20.9219V139.625H29.7109ZM33.0156 139.625V151H31.5078V139.625H33.0156ZM39.4297 149.273L42.7812 139.625H44.4141L40.2031 151H39.0391L39.4297 149.273ZM36.2969 139.625L39.6172 149.273L40.0312 151H38.8672L34.6641 139.625H36.2969ZM53.1719 149.773V151H47.1484V149.773H53.1719ZM47.4531 139.625V151H45.9453V139.625H47.4531ZM52.375 144.516V145.742H47.1484V144.516H52.375ZM53.0938 139.625V140.859H47.1484V139.625H53.0938ZM63.2188 140.633L59.4531 151H57.9141L62.25 139.625H63.2422L63.2188 140.633ZM66.375 151L62.6016 140.633L62.5781 139.625H63.5703L67.9219 151H66.375ZM66.1797 146.789V148.023H59.7891V146.789H66.1797ZM76.2188 147.383H77.7188C77.6406 148.102 77.4349 148.745 77.1016 149.312C76.7682 149.88 76.2969 150.331 75.6875 150.664C75.0781 150.992 74.3177 151.156 73.4062 151.156C72.7396 151.156 72.1328 151.031 71.5859 150.781C71.0443 150.531 70.5781 150.177 70.1875 149.719C69.7969 149.255 69.4948 148.701 69.2812 148.055C69.0729 147.404 68.9688 146.68 68.9688 145.883V144.75C68.9688 143.953 69.0729 143.232 69.2812 142.586C69.4948 141.935 69.7995 141.378 70.1953 140.914C70.5964 140.451 71.0781 140.094 71.6406 139.844C72.2031 139.594 72.8359 139.469 73.5391 139.469C74.3984 139.469 75.125 139.63 75.7188 139.953C76.3125 140.276 76.7734 140.724 77.1016 141.297C77.4349 141.865 77.6406 142.523 77.7188 143.273H76.2188C76.1458 142.742 76.0104 142.286 75.8125 141.906C75.6146 141.521 75.3333 141.224 74.9688 141.016C74.6042 140.807 74.1276 140.703 73.5391 140.703C73.0339 140.703 72.5885 140.799 72.2031 140.992C71.8229 141.185 71.5026 141.458 71.2422 141.812C70.987 142.167 70.7943 142.591 70.6641 143.086C70.5339 143.581 70.4688 144.13 70.4688 144.734V145.883C70.4688 146.44 70.526 146.964 70.6406 147.453C70.7604 147.943 70.9401 148.372 71.1797 148.742C71.4193 149.112 71.724 149.404 72.0938 149.617C72.4635 149.826 72.901 149.93 73.4062 149.93C74.0469 149.93 74.5573 149.828 74.9375 149.625C75.3177 149.422 75.6042 149.13 75.7969 148.75C75.9948 148.37 76.1354 147.914 76.2188 147.383ZM86.6406 147.383H88.1406C88.0625 148.102 87.8568 148.745 87.5234 149.312C87.1901 149.88 86.7188 150.331 86.1094 150.664C85.5 150.992 84.7396 151.156 83.8281 151.156C83.1615 151.156 82.5547 151.031 82.0078 150.781C81.4661 150.531 81 150.177 80.6094 149.719C80.2188 149.255 79.9167 148.701 79.7031 148.055C79.4948 147.404 79.3906 146.68 79.3906 145.883V144.75C79.3906 143.953 79.4948 143.232 79.7031 142.586C79.9167 141.935 80.2214 141.378 80.6172 140.914C81.0182 140.451 81.5 140.094 82.0625 139.844C82.625 139.594 83.2578 139.469 83.9609 139.469C84.8203 139.469 85.5469 139.63 86.1406 139.953C86.7344 140.276 87.1953 140.724 87.5234 141.297C87.8568 141.865 88.0625 142.523 88.1406 143.273H86.6406C86.5677 142.742 86.4323 142.286 86.2344 141.906C86.0365 141.521 85.7552 141.224 85.3906 141.016C85.026 140.807 84.5495 140.703 83.9609 140.703C83.4557 140.703 83.0104 140.799 82.625 140.992C82.2448 141.185 81.9245 141.458 81.6641 141.812C81.4089 142.167 81.2161 142.591 81.0859 143.086C80.9557 143.581 80.8906 144.13 80.8906 144.734V145.883C80.8906 146.44 80.9479 146.964 81.0625 147.453C81.1823 147.943 81.362 148.372 81.6016 148.742C81.8411 149.112 82.1458 149.404 82.5156 149.617C82.8854 149.826 83.3229 149.93 83.8281 149.93C84.4688 149.93 84.9792 149.828 85.3594 149.625C85.7396 149.422 86.026 149.13 86.2188 148.75C86.4167 148.37 86.5573 147.914 86.6406 147.383ZM98.9531 144.953V145.672C98.9531 146.526 98.8464 147.292 98.6328 147.969C98.4193 148.646 98.112 149.221 97.7109 149.695C97.3099 150.169 96.8281 150.531 96.2656 150.781C95.7083 151.031 95.0833 151.156 94.3906 151.156C93.7188 151.156 93.1016 151.031 92.5391 150.781C91.9818 150.531 91.4974 150.169 91.0859 149.695C90.6797 149.221 90.3646 148.646 90.1406 147.969C89.9167 147.292 89.8047 146.526 89.8047 145.672V144.953C89.8047 144.099 89.9141 143.336 90.1328 142.664C90.3568 141.987 90.6719 141.411 91.0781 140.938C91.4844 140.458 91.9661 140.094 92.5234 139.844C93.0859 139.594 93.7031 139.469 94.375 139.469C95.0677 139.469 95.6927 139.594 96.25 139.844C96.8125 140.094 97.2943 140.458 97.6953 140.938C98.1016 141.411 98.4115 141.987 98.625 142.664C98.8438 143.336 98.9531 144.099 98.9531 144.953ZM97.4609 145.672V144.938C97.4609 144.26 97.3906 143.661 97.25 143.141C97.1146 142.62 96.9141 142.182 96.6484 141.828C96.3828 141.474 96.0573 141.206 95.6719 141.023C95.2917 140.841 94.8594 140.75 94.375 140.75C93.9062 140.75 93.4818 140.841 93.1016 141.023C92.7266 141.206 92.4036 141.474 92.1328 141.828C91.8672 142.182 91.6615 142.62 91.5156 143.141C91.3698 143.661 91.2969 144.26 91.2969 144.938V145.672C91.2969 146.354 91.3698 146.958 91.5156 147.484C91.6615 148.005 91.8698 148.445 92.1406 148.805C92.4167 149.159 92.7422 149.427 93.1172 149.609C93.4974 149.792 93.9219 149.883 94.3906 149.883C94.8802 149.883 95.3151 149.792 95.6953 149.609C96.0755 149.427 96.3958 149.159 96.6562 148.805C96.9219 148.445 97.1224 148.005 97.2578 147.484C97.3932 146.958 97.4609 146.354 97.4609 145.672ZM107.719 139.625H109.219V147.32C109.219 148.174 109.029 148.885 108.648 149.453C108.268 150.021 107.763 150.448 107.133 150.734C106.508 151.016 105.828 151.156 105.094 151.156C104.323 151.156 103.625 151.016 103 150.734C102.38 150.448 101.888 150.021 101.523 149.453C101.164 148.885 100.984 148.174 100.984 147.32V139.625H102.477V147.32C102.477 147.914 102.586 148.404 102.805 148.789C103.023 149.174 103.328 149.461 103.719 149.648C104.115 149.836 104.573 149.93 105.094 149.93C105.62 149.93 106.078 149.836 106.469 149.648C106.865 149.461 107.172 149.174 107.391 148.789C107.609 148.404 107.719 147.914 107.719 147.32V139.625ZM120.336 139.625V151H118.82L113.094 142.227V151H111.586V139.625H113.094L118.844 148.422V139.625H120.336ZM126.977 139.625V151H125.492V139.625H126.977ZM130.633 139.625V140.859H121.844V139.625H130.633ZM138.258 148.125C138.258 147.859 138.216 147.625 138.133 147.422C138.055 147.214 137.914 147.026 137.711 146.859C137.513 146.693 137.237 146.534 136.883 146.383C136.534 146.232 136.091 146.078 135.555 145.922C134.992 145.755 134.484 145.57 134.031 145.367C133.578 145.159 133.19 144.922 132.867 144.656C132.544 144.391 132.297 144.086 132.125 143.742C131.953 143.398 131.867 143.005 131.867 142.562C131.867 142.12 131.958 141.711 132.141 141.336C132.323 140.961 132.583 140.635 132.922 140.359C133.266 140.078 133.674 139.859 134.148 139.703C134.622 139.547 135.151 139.469 135.734 139.469C136.589 139.469 137.312 139.633 137.906 139.961C138.505 140.284 138.961 140.708 139.273 141.234C139.586 141.755 139.742 142.312 139.742 142.906H138.242C138.242 142.479 138.151 142.102 137.969 141.773C137.786 141.44 137.51 141.18 137.141 140.992C136.771 140.799 136.302 140.703 135.734 140.703C135.198 140.703 134.755 140.784 134.406 140.945C134.057 141.107 133.797 141.326 133.625 141.602C133.458 141.878 133.375 142.193 133.375 142.547C133.375 142.786 133.424 143.005 133.523 143.203C133.628 143.396 133.786 143.576 134 143.742C134.219 143.909 134.495 144.062 134.828 144.203C135.167 144.344 135.57 144.479 136.039 144.609C136.685 144.792 137.242 144.995 137.711 145.219C138.18 145.443 138.565 145.695 138.867 145.977C139.174 146.253 139.401 146.568 139.547 146.922C139.698 147.271 139.773 147.667 139.773 148.109C139.773 148.573 139.68 148.992 139.492 149.367C139.305 149.742 139.036 150.062 138.688 150.328C138.339 150.594 137.919 150.799 137.43 150.945C136.945 151.086 136.404 151.156 135.805 151.156C135.279 151.156 134.76 151.083 134.25 150.938C133.745 150.792 133.284 150.573 132.867 150.281C132.456 149.99 132.125 149.63 131.875 149.203C131.63 148.771 131.508 148.271 131.508 147.703H133.008C133.008 148.094 133.083 148.43 133.234 148.711C133.385 148.987 133.591 149.216 133.852 149.398C134.117 149.581 134.417 149.716 134.75 149.805C135.089 149.888 135.44 149.93 135.805 149.93C136.331 149.93 136.776 149.857 137.141 149.711C137.505 149.565 137.781 149.357 137.969 149.086C138.161 148.815 138.258 148.495 138.258 148.125Z" fill="#C4C4C4"/>
<defs>
<linearGradient id="paint0_linear_1_55" x1="363.5" y1="-2" x2="-2.1364e-06" y2="130" gradientUnits="userSpaceOnUse">
<stop stop-color="#19FB9B"/>
<stop offset="1" stop-color="#8C01FA"/>
</linearGradient>
</defs>
</svg>

