<svg width="530" height="160" viewBox="0 0 530 160" fill="none" xmlns="http://www.w3.org/2000/svg">
<path d="M3.3125 101C3.65755 94.6165 4.96875 89.0612 7.24609 84.334C9.55794 79.6068 14.0436 75.3109 20.7031 71.4463L30.6406 65.7012C35.0918 63.1133 38.2145 60.9049 40.0088 59.0762C42.8382 56.2122 44.2529 52.9342 44.2529 49.2422C44.2529 44.929 42.959 41.513 40.3711 38.9941C37.7832 36.4408 34.3327 35.1641 30.0195 35.1641C23.6361 35.1641 19.2194 37.5794 16.7695 42.4102C15.4583 44.998 14.7337 48.5866 14.5957 53.1758H5.12402C5.22754 46.7233 6.41797 41.4613 8.69531 37.3896C12.7324 30.2126 19.8577 26.624 30.0713 26.624C38.5596 26.624 44.7533 28.9186 48.6523 33.5078C52.5859 38.097 54.5527 43.2038 54.5527 48.8281C54.5527 54.763 52.4652 59.8353 48.29 64.0449C45.8747 66.4948 41.5443 69.4622 35.2988 72.9473L28.208 76.8809C24.8265 78.7441 22.1696 80.5212 20.2373 82.2119C16.7868 85.2139 14.613 88.5436 13.7158 92.2012H54.1904V101H3.3125ZM69.1484 48.5176V41.375C75.877 40.7194 80.5697 39.6325 83.2266 38.1143C85.8835 36.5615 87.8675 32.9212 89.1787 27.1934H96.5283V101H86.5908V48.5176H69.1484ZM127.065 89.7168H137.883V101H127.065V89.7168ZM161.588 83.0918C161.864 88.2331 163.848 91.7871 167.54 93.7539C169.438 94.7891 171.577 95.3066 173.958 95.3066C178.409 95.3066 182.205 93.4606 185.345 89.7686C188.485 86.042 190.71 78.5026 192.021 67.1504C189.951 70.4284 187.381 72.7402 184.31 74.0859C181.273 75.3971 177.995 76.0527 174.476 76.0527C167.333 76.0527 161.674 73.8271 157.499 69.376C153.358 64.9248 151.288 59.1969 151.288 52.1924C151.288 45.4639 153.341 39.5462 157.447 34.4395C161.553 29.3327 167.609 26.7793 175.614 26.7793C186.414 26.7793 193.868 31.6445 197.974 41.375C200.251 46.7233 201.39 53.4173 201.39 61.457C201.39 70.5319 200.027 78.5716 197.301 85.5762C192.781 97.2389 185.12 103.07 174.32 103.07C167.074 103.07 161.571 101.173 157.81 97.377C154.049 93.5814 152.168 88.8197 152.168 83.0918H161.588ZM175.718 67.875C179.41 67.875 182.774 66.6673 185.811 64.252C188.882 61.8021 190.417 57.5407 190.417 51.4678C190.417 46.016 189.037 41.9616 186.276 39.3047C183.55 36.6133 180.065 35.2676 175.821 35.2676C171.267 35.2676 167.644 36.8031 164.952 39.874C162.295 42.9105 160.967 46.9821 160.967 52.0889C160.967 56.9196 162.14 60.7669 164.486 63.6309C166.833 66.4603 170.576 67.875 175.718 67.875ZM214.329 24.9678H229.08L250.922 89.251L272.608 24.9678H287.204V101H277.422V56.126C277.422 54.5732 277.456 52.0026 277.525 48.4141C277.594 44.8255 277.629 40.9782 277.629 36.8721L255.942 101H245.746L223.904 36.8721V39.2012C223.904 41.0645 223.939 43.9111 224.008 47.7412C224.111 51.5368 224.163 54.3317 224.163 56.126V101H214.329V24.9678Z" fill="url(#paint0_linear_1_60)"/>
<path d="M10.0703 139.625V151H8.55469L2.82812 142.227V151H1.32031V139.625H2.82812L8.57812 148.422V139.625H10.0703ZM14.25 139.625V151H12.7422V139.625H14.25ZM19.0156 144.742V145.977H13.9219V144.742H19.0156ZM19.7891 139.625V140.859H13.9219V139.625H19.7891ZM25.9453 139.625V151H24.4609V139.625H25.9453ZM29.6016 139.625V140.859H20.8125V139.625H29.6016ZM37.2266 148.125C37.2266 147.859 37.1849 147.625 37.1016 147.422C37.0234 147.214 36.8828 147.026 36.6797 146.859C36.4818 146.693 36.2057 146.534 35.8516 146.383C35.5026 146.232 35.0599 146.078 34.5234 145.922C33.9609 145.755 33.4531 145.57 33 145.367C32.5469 145.159 32.1589 144.922 31.8359 144.656C31.513 144.391 31.2656 144.086 31.0938 143.742C30.9219 143.398 30.8359 143.005 30.8359 142.562C30.8359 142.12 30.9271 141.711 31.1094 141.336C31.2917 140.961 31.5521 140.635 31.8906 140.359C32.2344 140.078 32.6432 139.859 33.1172 139.703C33.5911 139.547 34.1198 139.469 34.7031 139.469C35.5573 139.469 36.2812 139.633 36.875 139.961C37.474 140.284 37.9297 140.708 38.2422 141.234C38.5547 141.755 38.7109 142.312 38.7109 142.906H37.2109C37.2109 142.479 37.1198 142.102 36.9375 141.773C36.7552 141.44 36.4792 141.18 36.1094 140.992C35.7396 140.799 35.2708 140.703 34.7031 140.703C34.1667 140.703 33.724 140.784 33.375 140.945C33.026 141.107 32.7656 141.326 32.5938 141.602C32.4271 141.878 32.3438 142.193 32.3438 142.547C32.3438 142.786 32.3932 143.005 32.4922 143.203C32.5964 143.396 32.7552 143.576 32.9688 143.742C33.1875 143.909 33.4635 144.062 33.7969 144.203C34.1354 144.344 34.5391 144.479 35.0078 144.609C35.6536 144.792 36.2109 144.995 36.6797 145.219C37.1484 145.443 37.5339 145.695 37.8359 145.977C38.1432 146.253 38.3698 146.568 38.5156 146.922C38.6667 147.271 38.7422 147.667 38.7422 148.109C38.7422 148.573 38.6484 148.992 38.4609 149.367C38.2734 149.742 38.0052 150.062 37.6562 150.328C37.3073 150.594 36.888 150.799 36.3984 150.945C35.9141 151.086 35.3724 151.156 34.7734 151.156C34.2474 151.156 33.7292 151.083 33.2188 150.938C32.7135 150.792 32.2526 150.573 31.8359 150.281C31.4245 149.99 31.0938 149.63 30.8438 149.203C30.599 148.771 30.4766 148.271 30.4766 147.703H31.9766C31.9766 148.094 32.0521 148.43 32.2031 148.711C32.3542 148.987 32.5599 149.216 32.8203 149.398C33.0859 149.581 33.3854 149.716 33.7188 149.805C34.0573 149.888 34.4089 149.93 34.7734 149.93C35.2995 149.93 35.7448 149.857 36.1094 149.711C36.474 149.565 36.75 149.357 36.9375 149.086C37.1302 148.815 37.2266 148.495 37.2266 148.125ZM45.1094 139.625H46.5703L50.2969 148.898L54.0156 139.625H55.4844L50.8594 151H49.7188L45.1094 139.625ZM44.6328 139.625H45.9219L46.1328 146.562V151H44.6328V139.625ZM54.6641 139.625H55.9531V151H54.4531V146.562L54.6641 139.625ZM60.2188 139.625V151H58.7109V139.625H60.2188ZM71.7109 139.625V151H70.1953L64.4688 142.227V151H62.9609V139.625H64.4688L70.2188 148.422V139.625H71.7109ZM78.3516 139.625V151H76.8672V139.625H78.3516ZM82.0078 139.625V140.859H73.2188V139.625H82.0078ZM90.9219 149.773V151H84.8984V149.773H90.9219ZM85.2031 139.625V151H83.6953V139.625H85.2031ZM90.125 144.516V145.742H84.8984V144.516H90.125ZM90.8438 139.625V140.859H84.8984V139.625H90.8438ZM95.8672 151H93.4922L93.5078 149.773H95.8672C96.6797 149.773 97.3568 149.604 97.8984 149.266C98.4401 148.922 98.8464 148.443 99.1172 147.828C99.3932 147.208 99.5312 146.484 99.5312 145.656V144.961C99.5312 144.31 99.4531 143.732 99.2969 143.227C99.1406 142.716 98.9115 142.286 98.6094 141.938C98.3073 141.583 97.9375 141.315 97.5 141.133C97.0677 140.951 96.5703 140.859 96.0078 140.859H93.4453V139.625H96.0078C96.7526 139.625 97.4323 139.75 98.0469 140C98.6615 140.245 99.1901 140.602 99.6328 141.07C100.081 141.534 100.424 142.096 100.664 142.758C100.904 143.414 101.023 144.154 101.023 144.977V145.656C101.023 146.479 100.904 147.221 100.664 147.883C100.424 148.539 100.078 149.099 99.625 149.562C99.1771 150.026 98.6354 150.383 98 150.633C97.3698 150.878 96.6589 151 95.8672 151ZM94.2969 139.625V151H92.7891V139.625H94.2969Z" fill="#C4C4C4"/>
<defs>
<linearGradient id="paint0_linear_1_60" x1="338.5" y1="-12" x2="-33" y2="130" gradientUnits="userSpaceOnUse">
<stop stop-color="#0047FF"/>
<stop offset="1" stop-color="#00BCD4"/>
</linearGradient>
</defs>
</svg>

